HIERARCHY
ROOT Hips
{
  OFFSET 0 0 0
  CHANNELS 6 Xposition Yposition Zposition Zrotation Yrotation Xrotation
  JOINT LeftThigh
  {
    OFFSET 8.409438 0 -5.917753
    CHANNELS 3 Zrotation Yrotation Xrotation
    JOINT LeftLeg
    {
      OFFSET 0 0 -42.358652
      CHANNELS 3 Zrotation Yrotation Xrotation
      JOINT LeftFoot
      {
        OFFSET 0 0 -39.357303
        CHANNELS 3 Zrotation Yrotation Xrotation
      }
    }
  }
  JOINT RightThigh
  {
    OFFSET -8.409438 0 -5.917753
    CHANNELS 3 Zrotation Yrotation Xrotation
    JOINT RightLeg
    {
      OFFSET 0 0 -42.358652
      CHANNELS 3 Zrotation Yrotation Xrotation
      JOINT RightFoot
      {
        OFFSET 0 0 -39.357303
        CHANNELS 3 Zrotation Yrotation Xrotation
      }
    }
  }
  JOINT SpineLow
  {
    OFFSET 0 0 4.719101
    CHANNELS 3 Zrotation Yrotation Xrotation
    JOINT SpineMid
    {
      OFFSET 0 0 12.899191
      CHANNELS 3 Zrotation Yrotation Xrotation
      JOINT Chest
      {
        OFFSET 0 0 12.899191
        CHANNELS 3 Zrotation Yrotation Xrotation
        JOINT LeftShoulder
        {
          OFFSET 7.550562 1.41573 9.438202
          CHANNELS 3 Zrotation Yrotation Xrotation
          JOINT LeftArm
          {
            OFFSET 9.155056 0 4.247191
            CHANNELS 3 Zrotation Yrotation Xrotation
            JOINT LeftForearm
            {
              OFFSET 0 0 25.771955
              CHANNELS 3 Zrotation Yrotation Xrotation
              JOINT LeftHand
              {
                OFFSET 0 0 25.197169
                CHANNELS 3 Zrotation Yrotation Xrotation
              }
            }
          }
        }
        JOINT RightShoulder
        {
          OFFSET -7.550562 1.41573 9.438202
          CHANNELS 3 Zrotation Yrotation Xrotation
          JOINT RightArm
          {
            OFFSET -9.155056 0 4.247191
            CHANNELS 3 Zrotation Yrotation Xrotation
            JOINT RightForearm
            {
              OFFSET 0 0 -25.771955
              CHANNELS 3 Zrotation Yrotation Xrotation
              JOINT RightHand
              {
                OFFSET 0 0 -25.197169
                CHANNELS 3 Zrotation Yrotation Xrotation
              }
            }
          }
        }
        JOINT Neck
        {
          OFFSET 0 0 15.101124
          CHANNELS 3 Zrotation Yrotation Xrotation
          JOINT Head
          {
            OFFSET 0 0 11.325843
            CHANNELS 3 Zrotation Yrotation Xrotation
            End Site
            {
              OFFSET 0 0 14.157303
            }
          }
        }
      }
    }
  }
}
MOTION
Frames: 16
Frame Time: 0.0
0.0  89.887642  0.0  2.509796  5.889808  -92.45555  3.659438  -12.720591  -8.581438  -11.728904  6.415793  21.342708  -5.084431  -2.294643  -0.373769  -21.736143  11.997055  -16.867021  -1.504975  4.87181  22.138211  1.814725  1.632192  -2.37931  -1.02643  0.759251  -0.206878  -2.812962  2.066107  -0.59777  -2.812962  2.066106  -0.59777  -0.424662  12.776958  19.314946  134.443787  41.602275  -169.518761  -25.315582  4.68445  42.767054  79.281491  -17.154077  8.337725  -11.41771  -14.294823  28.711659  90.11418  37.605878  37.383433  3.671269  16.800932  -45.041916  83.976098  13.818251  -24.448182  -9.213466  0.173131  3.777327  -6.911478  0.072917  2.836368  
0.0  89.887642  0.0  2.599991  6.353932  -92.445757  3.366131  -12.682528  -8.857139  -11.864952  6.610929  21.603692  -5.075673  -2.285524  -0.312603  -21.547893  12.094209  -17.01949  -1.402269  4.879123  22.837224  1.771115  1.705563  -2.46138  -1.0447  0.803999  -0.19593  -2.863042  2.188696  -0.570368  -2.863042  2.188696  -0.570368  -0.524271  12.832024  19.350479  134.36509  41.557381  -169.567696  -25.575609  4.512997  42.227082  79.158654  -17.219483  8.345974  -11.304673  -14.341207  28.777147  90.465982  37.619809  37.230374  3.973434  16.867737  -43.628803  83.970474  14.086356  -24.182344  -9.47656  0.049119  3.747724  -7.108038  -0.021289  2.812356  
0.0  89.887642  0.0  2.678682  6.826489  -92.412729  3.053276  -12.693604  -9.189763  -11.839355  6.79405  21.998928  -5.071886  -2.17033  -0.297308  -21.425288  12.185496  -17.327504  -1.558064  4.985092  23.680179  2.035064  1.845692  -2.485807  -1.02849  0.840307  -0.184052  -2.818692  2.288571  -0.538924  -2.818692  2.288571  -0.538925  -0.884302  12.928171  19.348594  134.941164  41.283576  -169.503998  -25.402039  4.384182  42.147754  79.006812  -17.23765  8.408073  -11.520885  -14.330315  28.757963  91.313183  37.350351  37.443001  3.820299  16.928099  -42.37878  83.931144  14.321531  -23.893105  -9.864467  -0.053427  3.705978  -7.398349  -0.099933  2.779479  
0.0  89.887642  0.0  2.830949  7.518576  -92.355491  2.549937  -12.664592  -9.533213  -11.982419  7.097114  22.275092  -5.007678  -2.131702  -0.231031  -21.200431  12.438205  -17.656835  -1.946545  5.150403  24.701758  1.967142  1.959287  -2.587423  -1.057958  0.890229  -0.184833  -2.899807  2.42471  -0.544287  -2.899807  2.42471  -0.544287  -1.130141  13.028415  19.435303  135.065893  41.242734  -169.438608  -25.751821  4.299755  41.826617  78.87063  -17.242149  8.524158  -11.532485  -14.262244  28.86891  91.693807  37.404062  37.34868  3.939623  16.931712  -41.245811  83.845817  14.501543  -23.583632  -10.218108  -0.145626  3.705527  -7.663029  -0.171249  2.77763  
0.0  89.887642  0.0  2.97742  8.290385  -92.282192  1.969245  -12.720024  -9.953707  -12.045998  7.481557  22.650439  -4.90094  -2.015941  -0.198165  -21.077492  12.65927  -18.049719  -3.323357  5.666064  25.54676  2.598676  2.209986  -2.560356  -1.090181  0.93455  -0.183852  -2.988349  2.545593  -0.54481  -2.988349  2.545593  -0.54481  -1.375577  13.153381  19.526753  135.626633  41.094744  -169.25994  -25.745233  4.289212  41.860267  78.745619  -17.190089  8.616404  -11.67248  -14.118797  28.89691  92.38489  37.290196  37.572447  3.682455  16.855686  -40.422066  83.770357  14.683107  -23.29606  -10.596944  -0.220365  3.698925  -7.946711  -0.229515  2.771358  
0.0  89.887642  0.0  3.175253  9.383299  -92.127082  1.153953  -12.726069  -10.493305  -12.12881  7.956527  23.060698  -4.872253  -2.003487  -0.171082  -20.968056  12.919733  -18.324646  -3.83417  5.995715  26.527643  2.544646  2.308932  -2.62419  -1.166534  0.992163  -0.198511  -3.198369  2.701653  -0.590639  -3.198369  2.701653  -0.590639  -1.575726  13.258107  19.659044  135.775015  41.122363  -169.146729  -26.126795  4.300085  41.728971  78.623277  -17.14127  8.772301  -11.750674  -13.974518  28.988388  92.643041  37.364531  37.450476  3.685797  16.768794  -39.684261  83.668955  14.828237  -23.002563  -11.00793  -0.299591  3.729735  -8.254467  -0.292012  2.792973  
0.0  89.887642  0.0  3.328048  10.594242  -91.981484  0.294436  -12.858387  -11.104659  -12.306066  8.514502  23.478345  -4.762305  -1.893143  -0.139895  -20.924577  13.055907  -18.52437  -5.451863  6.568556  27.058415  3.276924  2.715432  -2.483846  -1.235034  1.037796  -0.203227  -3.386443  2.825455  -0.608689  -3.386443  2.825455  -0.608689  -1.905608  13.382576  19.793154  136.151174  41.130398  -168.927551  -26.179575  4.366934  41.903556  78.46437  -16.999356  8.767395  -12.081685  -13.790269  28.947634  93.011059  37.314586  37.530924  3.487706  16.639278  -39.22396  83.620635  15.020509  -22.727492  -11.505183  -0.365902  3.744996  -8.627002  -0.345103  2.803027  
0.0  89.887642  0.0  3.475458  12.127796  -91.803284  -0.8241  -12.974577  -11.831731  -12.437379  9.183595  24.0592  -4.668119  -1.896136  -0.125182  -21.199681  13.232947  -18.758907  -5.487968  6.732819  27.940867  3.029012  2.882342  -2.462694  -1.349025  1.087994  -0.215542  -3.699375  2.960802  -0.650061  -3.699375  2.960802  -0.650061  -2.248262  13.501776  19.961161  136.394302  41.255117  -168.705736  -26.496426  4.442916  41.904896  78.414259  -16.954701  8.824155  -12.289036  -13.632653  28.978588  92.910769  37.389126  37.297565  3.518951  16.587167  -38.874175  83.53096  15.123208  -22.416742  -12.043627  -0.441939  3.79351  -9.030348  -0.406434  2.837715  
0.0  89.887642  0.0  3.495487  13.669393  -91.725848  -1.790798  -13.288438  -12.57412  -12.676619  9.924957  24.677614  -4.525254  -1.794889  -0.079047  -21.534959  13.260161  -18.790476  -5.196932  6.802727  28.74807  2.577161  3.121538  -2.436929  -1.427957  1.108047  -0.213653  -3.915443  3.014872  -0.649624  -3.915443  3.014872  -0.649624  -2.667344  13.75075  20.176925  136.59837  41.481911  -168.519315  -26.346071  4.63523  42.280711  78.267136  -16.737504  8.427933  -12.876892  -13.380199  28.876281  92.857846  37.282245  37.204736  3.42802  16.586945  -38.730163  83.504035  15.23667  -22.133244  -12.699825  -0.468041  3.84466  -9.522322  -0.431185  2.875225  
0.0  89.887642  0.0  3.443011  15.535392  -91.663483  -2.899324  -13.645074  -13.366517  -12.982717  10.756171  25.372566  -4.403052  -1.800036  -0.056483  -21.965648  13.325075  -18.613689  -5.282641  6.966562  29.389477  2.261504  3.278956  -2.402709  -1.563527  1.125173  -0.221745  -4.286852  3.059695  -0.679038  -4.286852  3.059695  -0.679038  -3.000184  13.997021  20.511567  136.713133  41.850094  -168.317056  -26.621202  4.840853  42.3775  78.224447  -16.664985  8.258404  -13.240426  -13.155624  28.8901  92.281672  37.280735  36.752706  3.63211  16.731498  -38.6285  83.449843  15.270468  -21.844829  -13.350413  -0.486608  3.943887  -10.010108  -0.451412  2.948935  
0.0  89.887642  0.0  3.220252  17.234169  -91.746386  -3.627379  -14.211329  -13.990256  -12.936954  11.546365  26.320193  -4.532933  -1.84851  -0.184445  -22.037002  13.291238  -18.208309  -5.279615  7.088618  30.067317  1.706928  3.328287  -2.420275  -1.629527  1.095742  -0.201557  -4.466042  2.979926  -0.624885  -4.466042  2.979926  -0.624884  -3.539017  14.39094  20.818666  136.70693  42.385561  -168.150399  -26.394534  5.304323  42.92298  77.928081  -16.290096  7.488058  -14.037515  -12.798819  28.659457  91.812098  37.05629  36.457847  3.604286  16.940045  -38.605444  83.529201  15.386077  -21.596442  -14.13441  -0.427871  3.987686  -10.598507  -0.413441  2.982746  
0.0  89.887642  0.0  2.862161  18.967331  -91.842182  -4.378296  -14.809005  -14.702643  -13.107847  12.235517  27.035816  -4.615733  -1.871396  -0.177053  -22.09002  13.207682  -17.707879  -5.618328  7.216432  30.575919  1.453205  3.450644  -2.359934  -1.71467  1.054128  -0.193223  -4.697986  2.865961  -0.602949  -4.697987  2.865961  -0.602948  -3.929901  14.779116  21.193367  136.591231  43.05725  -168.010415  -26.875242  5.849596  43.023837  77.848857  -16.140127  7.230028  -14.489252  -12.515756  28.552903  90.964257  36.930831  35.981417  3.764149  17.251456  -38.711645  83.528905  15.350938  -21.250651  -14.892566  -0.379737  4.058358  -11.167451  -0.384023  3.036641  
0.0  89.887642  0.0  2.374022  20.242177  -92.047432  -4.348412  -15.587194  -15.314605  -13.437682  13.005164  27.661522  -4.552566  -1.854606  -0.160738  -21.328692  13.023344  -17.000045  -6.157869  7.357291  31.048272  1.065223  3.550971  -2.271325  -1.684868  0.955742  -0.148676  -4.613473  2.600596  -0.472978  -4.613473  2.600596  -0.472978  -4.525403  15.364126  21.364475  136.051461  43.913327  -168.019989  -27.521639  6.588586  43.128501  77.757905  -15.952942  6.823017  -15.444387  -12.076603  28.027343  90.406685  36.578386  35.750405  3.712742  17.512941  -38.813148  83.495669  15.239746  -20.816633  -15.792317  -0.240817  3.968966  -11.843254  -0.283453  2.972852  
0.0  89.887642  0.0  1.778283  21.671956  -92.166045  -4.275737  -16.396441  -16.054314  -13.744178  13.686646  28.236393  -4.65481  -1.955523  -0.21198  -20.596681  12.589927  -16.477995  -6.918751  7.603702  31.532617  0.741343  3.732572  -2.154941  -1.738395  0.851899  -0.130269  -4.758102  2.317824  -0.417256  -4.758102  2.317824  -0.417256  -4.827238  15.894875  21.407984  135.597217  44.722151  -168.140172  -28.268406  7.407668  43.270799  77.847366  -15.779786  6.505669  -15.684137  -11.751158  27.655986  89.511927  36.413575  35.437863  3.713852  17.730559  -39.088081  83.346362  15.12082  -20.438936  -16.507089  -0.150287  3.919169  -12.379955  -0.218819  2.937859  
0.0  89.887642  0.0  1.13501  22.992733  -92.254445  -3.672883  -17.310798  -16.75951  -14.129775  14.390921  28.72118  -4.904192  -2.080405  -0.405052  -19.648059  11.96115  -16.04306  -7.762349  7.951743  31.913815  0.596103  3.943477  -1.929014  -1.770459  0.728284  -0.107042  -4.843925  1.981625  -0.345812  -4.843925  1.981625  -0.345812  -5.173331  16.535016  21.352354  135.292643  45.494346  -168.244668  -28.898762  8.125042  43.63401  77.985664  -15.510067  6.193724  -15.909993  -11.51486  27.147647  88.931129  36.060314  35.410083  3.319823  17.876676  -39.255223  83.139175  15.01805  -20.035058  -17.242691  -0.062019  3.798902  -12.93223  -0.153899  2.850119  
0.0  89.887642  0.0  0.423467  24.080482  -92.334762  -2.759524  -18.216928  -17.641453  -14.492818  14.972785  29.295452  -5.312632  -2.235611  -0.596287  -18.793974  11.262502  -15.803085  -8.510359  8.24977  32.295226  0.292925  4.097007  -1.785756  -1.795685  0.595313  -0.086896  -4.911363  1.619744  -0.281615  -4.911363  1.619744  -0.281614  -5.356  17.139516  21.295709  134.73045  46.333661  -168.368716  -29.831529  8.68894  44.028712  77.975629  -15.185089  5.837414  -15.981304  -11.247154  26.600569  88.05845  35.821184  35.242001  3.109677  18.059622  -39.594687  83.010495  14.963063  -19.730085  -17.884549  -0.019149  3.676969  -13.413878  -0.122149  2.759973  
